<svg version="1.1" width="349" height="215" viewBox="50 69 349 215" xmlns="http://www.w3.org/2000/svg" xmlns:xlink="http://www.w3.org/1999/xlink">
  <!-- Exported by Scratch - http://scratch.mit.edu/ -->
  <g id="ID0.7501363321207464">
    <text id="ID0.643855697941035" fill="#FFFFFF" x="75" y="157.35" text-anchor="start" font-family="Gloria" font-size="22" transform="matrix(7.026513576507568, 1.398018479347229, -1.398018479347229, 7.026513576507568, 67.15, 0.55)">R</text>
    <path id="ID0.4038257310166955" fill="none" stroke="#FFFFFF" stroke-width="11" stroke-linecap="round" d="M 166 210 C 166 210 170.273 193.423 170 185 C 169.751 177.071 165 163 165 163 " transform="matrix(1.6781264543533325, 0, 0, 1.6781264543533325, -100.6, -130.75)"/>
    <path id="ID0.17368950136005878" fill="none" stroke="#FFFFFF" stroke-width="9" stroke-linecap="round" d="M 165 152 C 156.237 151.075 147.976 138.958 149 130 C 149.872 122.435 161.276 117.850 169 118 C 175.995 118.668 185.777 125.013 185 132 C 183.950 141.336 174.132 152.070 165 152 Z " transform="matrix(1.4049429893493652, 0, 0, 1.4049429893493652, -57.9, -88.2)"/>
    <path id="ID0.44995575584471226" fill="none" stroke="#FFFFFF" stroke-width="9" stroke-linecap="round" d="M 196 206 C 196 206 192.344 192.483 194 186 C 196.350 176.787 199.445 165.590 208 162 C 214.471 158.519 223.840 164.040 228 170 C 234.049 178.665 235 201 235 201 " transform="matrix(1.6781264543533325, 0, 0, 1.6781264543533325, -100.6, -130.75)"/>
    <path id="ID0.4832779192365706" fill="none" stroke="#FFFFFF" stroke-width="9" stroke-linecap="round" d="M 280 160 C 280 160 269.333 160.326 265 163 C 259.988 166.102 255.468 170.655 253 176 C 251.301 179.712 250.219 185.673 253 189 C 256.867 193.483 264.448 196.676 270 194 C 276.709 191.774 279.465 183.760 283 177 C 284.725 173.702 283.860 163.036 285 166 C 288.860 176.036 292.419 190.408 293 203 C 293.437 212.461 292.654 222.751 288 231 C 284.687 236.873 277.458 243.936 271 242 C 260.238 238.771 246 218 246 218 " transform="matrix(1.6781264543533325, 0, 0, 1.6781264543533325, -100.6, -130.75)"/>
  </g>
</svg>